<svg xmlns="http://www.w3.org/2000/svg" viewBox="0 0 971.32 342.25"><defs fill="#ffffff"><style>.cls-1{fill:#ffffff;fill-rule:evenodd;}.cls-2,.cls-3{fill:#ffffff;}.cls-3{stroke:#ffffff;stroke-miterlimit:10;stroke-width:3px;}</style></defs><g id="Layer_2" data-name="Layer 2"><g id="Layer_1-2" data-name="Layer 1"><path class="cls-1" d="M231.51,248.55a29.11,29.11,0,1,1-29.11-29.11A29.1,29.1,0,0,1,231.51,248.55Z" fill="#ffffff"/><path class="cls-2" d="M199.07,342.25c73.28,0,150.68-57.74,150.68-150.69,0-79.22-62.67-150.69-151.23-150.66A75.21,75.21,0,0,0,182.73,42c16.59,2.71,30.6,11.8,36.57,21.21C248.8,64.59,340,102.6,327.37,211.34c-42.74-17.62-86.84-38.08-129-56.24-36.7,14.62-103,41.7-109.49,44.47a180,180,0,0,0,4.33,19.52c29.89-12.19,105.32-41.86,105.32-41.86S302,221,323.15,229.78C308.8,284.19,256.63,323,197.7,321.35c-54.13-1.47-78.8-26.77-85-32.89-.54,4.93,7.75,13.11,7.82,31.73C139.48,330.43,164.32,342.25,199.07,342.25Z" fill="#ffffff"/><path class="cls-2" d="M0,123.17c6.35-4,12.1-11.69,19.47-16.88,3.1-2.18,7.37-3.51,10.84-5.42,7.9-4.35,15.31-8.23,22.76-10.84,4.52-1.59,9.35-1.59,14.1-3.26,3.56-1.25,6.48-4.22,9.75-5.42,17.43-6.41,33.73,4.44,44.45,9.76-2.56,6.83-11,7.83-18.43,9.76,1.86-4.28,7.18-5.11,10.84-7.59-3.49-7.2-10.9-7.77-18.43-8.68C89.57,91.11,80.2,94,78,104.13c4.24-2,10.81-1.06,14.09,1.08-3.64,2.51-11.9.38-17.35,1.08a59.34,59.34,0,0,0-15.17,26c6.27-2.22,14.16-5.51,21.68-3.25-6.51,3.07-14,3.37-19.51,6.51C52.21,141,52.66,150.05,53.07,166c6.68-5.26,12.77-11.09,26-9.76-12.11,7-27.92,12.2-30.35,29.28-1.32,9.29,1.28,18.85,2.17,30.37,2.38-.48,3.87-3.53,5.42-5.42,4.27-5.24,8.07-10,14.09-13,3.29-1.64,7.34-5.2,11.92-2.17-7.22,6.47-19.73,13.22-26,21.69-3.94,5.31-3.49,11.89-2.17,20.61,1.9,12.66,5.11,21.2,8.67,30.37C70,257,73.45,242.37,91,241.87c.49,3.35-3.51,3.63-5.42,5.42-2.27,2.12-4.27,5.07-6.51,7.6-4.36,4.91-9.58,10.3-11.92,16.26-2.45,6.24.63,19.82,1.08,22.78a201.12,201.12,0,0,0,5.42,24.95c11.24-4.47,28.3-10,42-1.77,1.83-4.58-2.57-13.93-4.1-17.75-9.74-24.45-13.74-52.94-21.68-79.18-6.79-22.46-13.22-58.07-7.59-83.52,2.68-12.1,6.94-25.8,15.18-31.45.07,3.8-6.2,10-6.5,17.35-.21,5.12,1.34,8.65,3.25,13,7.58-2.91,14.45-7.27,24.93-4.34-5.19,3.12-9.72,6.91-10.84,14.1,16.18-1,25.44,3.58,31.44,10.85,2.22,2.69,2.54,7.53,6.5,8.67-.64-4.62.78-7.17,1.09-10.84.66-4.4,6.18-3.94,7.59-7.59A20.12,20.12,0,0,0,146.3,141c.17-3.81,6.64-1.32,6.51-5.42-2.88-3.36-11.17-4.3-15.18-3.26,4.88-3.43,12.33-4.29,20.6-4.33-4.29-9.82-12.8-15.39-23.85-18.44,14.53-7.09,31.22,13.31,37.94,23.86,5,7.9,8.9,15.4,5.42,24.94,1.25,3.09,3.52-1.77,4.34-3.25,5.44-9.83,6.91-36.8-1.09-43.38,2.27-2.9,5.18,2.7,8.68,2.17-3.34-10.76-11.45-16.75-26-16.27,1-4.58,9.9-3.07,15.18-2.17s10.85,4.57,14.09,5.42c-6.84-13.17-25.86-21.57-45.53-15.18,2.19-4.32,9.59-3.42,10.84-8.68-12.77-3.77-23.91,2.59-26,13-2.67-.15-5.22-.17-6.5,1.08-2.3-1.9-3.57-4.15-3.25-6.51.5-3.84,13.2-9.61,22.76-10.84,11-1.42,15.94,1.87,22.77,4.33,4.17,1.51,9.07,2,13,3.26,23.89,7.78,48.18,22.36,56.38,35.79,2.91-7.54.12-12.93-2.17-17.35-8-15.38-24.74-25.67-40.11-32.54,12.85-3.46,21.69,6.49,29.27,11.93,1.46-7.57-6.21-13.46-11.93-18.44-7.6-6.62-16.39-13.37-28.18-14.1-4.44-.51,0,2.73,0,4.34-6.45-5.36-17.22-14.81-30.36-7.59-.12,4.1,6.34,1.61,6.51,5.42-7.14-4.6-20.48-5.81-27.1,0,.14-5.79,3.25-21.25-6.51-22.78.63,5.7-1.91,8.21-1.08,14.1-2.4-19.65-12.46-31.64-28.19-38-1.08,0-3-2.17-4.13-2.17,6.84,6.89,14.65,15.87,16.06,28.2-6.67-8.51-11-19.32-27.11-18.44,1.91,2.8,5.26,4.15,6.51,7.6-19.62-2.93-34.36,7.25-42.28,19.52,5-3.58,11.37-5.11,19.51-4.34,16.29,1.53,37.23,10.38,41.2,21.69-5-.93-9-3.36-14.1-3.25a40.07,40.07,0,0,0-5.42,1.08c-.2.21.25,2.09,0,2.17-3.23,1.08-8.27-2.19-8.67,2.17-2-2.08,5.56-3.78,6.51-6.51-10.48-7.51-22.56.77-28.19,7.6-2.8-.26,1.49-1.87,0-4.34C36.62,56.93,22.35,67.24,15.13,84.6c9.26-4.19,17.64-14.79,30.36-11.93C27.6,82.61,10.19,93,2.12,112.8,0,116.67,0,119.92,0,123.17Zm100.77-64.6c2.56,0,3.19-1.87,6.51-1.08,1.34,8.41,10.87,8.64,13,16.27-1.44,0-1,1.9-2.17,2.16C114.91,67.56,107.73,63.18,100.77,58.57Zm26-4.34c2-3.74,10.93-4.58,14.09-1.08-5.67.83-8.16,4.85-13,6.51C128.77,56.59,126.35,56.85,126.79,54.23Z" fill="#ffffff"/><path class="cls-2" d="M231.51,248.55a29.11,29.11,0,1,1-29.11-29.11A29.1,29.1,0,0,1,231.51,248.55Z" fill="#ffffff"/><path class="cls-3" d="M371,187V82.18h70.5V94.54H384.78V127h49v12.37h-49V187Z" fill="#ffffff"/><path class="cls-3" d="M498.41,177.6a47.73,47.73,0,0,1-13.72,8.58,39.73,39.73,0,0,1-14.15,2.5q-12.48,0-19.18-6.11a20.23,20.23,0,0,1-6.7-15.62,21.14,21.14,0,0,1,9.16-17.58,31.06,31.06,0,0,1,9.24-4.22,90.76,90.76,0,0,1,11.4-1.93q15.54-1.86,22.88-4.43c.05-1.76.08-2.88.08-3.36q0-7.86-3.64-11.08Q488.86,120,479.17,120q-9.06,0-13.37,3.18t-6.38,11.26l-12.55-1.72a31.13,31.13,0,0,1,5.64-13A24.7,24.7,0,0,1,463.84,112,50.35,50.35,0,0,1,481,109.34q9.69,0,15.75,2.29t8.91,5.75a20.27,20.27,0,0,1,4,8.76,73.49,73.49,0,0,1,.64,11.86v17.16q0,17.94.82,22.69a28.57,28.57,0,0,0,3.24,9.11H501A27.36,27.36,0,0,1,498.41,177.6Zm-1.07-28.74q-7,2.87-20.95,4.87-7.92,1.14-11.2,2.57a11.21,11.21,0,0,0-5.06,4.18,11.4,11.4,0,0,0,2.11,14.69q3.88,3.44,11.37,3.43a26.36,26.36,0,0,0,13.18-3.25,20.07,20.07,0,0,0,8.49-8.9q2.06-4.37,2.06-12.87Z" fill="#ffffff"/><path class="cls-3" d="M530.28,97V82.18h12.83V97Zm0,90v-75.9h12.83V187Z" fill="#ffffff"/><path class="cls-3" d="M590.66,175.45l1.85,11.37a47.57,47.57,0,0,1-9.69,1.14q-7,0-10.84-2.21a12.41,12.41,0,0,1-5.42-5.83q-1.56-3.6-1.57-15.19V121.06h-9.41v-10H565V92.26l12.76-7.72v26.52h12.91v10H577.75v44.39q0,5.51.68,7.07a5.37,5.37,0,0,0,2.21,2.51A8.52,8.52,0,0,0,585,176,40.66,40.66,0,0,0,590.66,175.45Z" fill="#ffffff"/><path class="cls-3" d="M603.2,187V82.18H616v37.6a28.61,28.61,0,0,1,22.66-10.44,30.6,30.6,0,0,1,14.62,3.32,19.51,19.51,0,0,1,8.87,9.19q2.67,5.87,2.68,17V187H652v-48.1q0-9.65-4.17-14.05t-11.79-4.39a20.81,20.81,0,0,0-10.73,3,16.77,16.77,0,0,0-7.17,8.05q-2.13,5.07-2.13,14V187Z" fill="#ffffff"/><path class="cls-3" d="M358.91,303.22,399.23,198.1h15l43,105.12H441.33l-12.24-31.84h-43.9l-11.52,31.84Zm30.29-43.17h35.59l-11-29.11q-5-13.26-7.45-21.8a134.14,134.14,0,0,1-5.66,20.08Z" fill="#ffffff"/><path class="cls-3" d="M516.24,275.33,528.91,277q-2.07,13.11-10.63,20.54t-21,7.42q-15.61,0-25.1-10.22t-9.49-29.29a53.05,53.05,0,0,1,4.09-21.58A28.5,28.5,0,0,1,479.18,230a36.84,36.84,0,0,1,18.15-4.62q12.39,0,20.27,6.27t10.1,17.82l-12.54,1.94q-1.78-7.68-6.33-11.55a16.42,16.42,0,0,0-11-3.87A20,20,0,0,0,482,243q-6.09,7-6.09,22.12,0,15.35,5.87,22.3a19.11,19.11,0,0,0,15.33,7,18,18,0,0,0,12.67-4.66Q514.87,285,516.24,275.33Z" fill="#ffffff"/><path class="cls-3" d="M592.5,293.83a48,48,0,0,1-13.79,8.6,39.81,39.81,0,0,1-14.21,2.51q-12.54,0-19.26-6.13a20.25,20.25,0,0,1-6.74-15.67,20.83,20.83,0,0,1,2.55-10.22,21,21,0,0,1,6.66-7.42,31.39,31.39,0,0,1,9.27-4.23,91.8,91.8,0,0,1,11.46-1.93q15.6-1.87,23-4.45c.05-1.77.08-2.89.08-3.37q0-7.89-3.66-11.11Q582.91,236,573.16,236q-9.09,0-13.42,3.19t-6.41,11.3l-12.6-1.73a31.25,31.25,0,0,1,5.65-13.08A24.8,24.8,0,0,1,557.77,228,50.5,50.5,0,0,1,575,225.35q9.74,0,15.82,2.29t8.95,5.77a20.28,20.28,0,0,1,4,8.79,72.48,72.48,0,0,1,.65,11.9v17.21q0,18,.82,22.77a28.86,28.86,0,0,0,3.26,9.14H595.08A27.31,27.31,0,0,1,592.5,293.83ZM591.42,265q-7,2.87-21,4.88-7.95,1.14-11.24,2.58a11.2,11.2,0,0,0-5.09,4.19,11.42,11.42,0,0,0,2.12,14.74q3.9,3.44,11.42,3.44a26.64,26.64,0,0,0,13.25-3.26,20.16,20.16,0,0,0,8.52-8.93q2.07-4.38,2.07-12.91Z" fill="#ffffff"/><path class="cls-3" d="M670.84,303.22v-9.61q-7.23,11.33-21.27,11.33a29.78,29.78,0,0,1-16.72-5,33,33,0,0,1-11.81-14,48.37,48.37,0,0,1-4.19-20.68,54.19,54.19,0,0,1,3.79-20.69A30,30,0,0,1,632,230.29a30.48,30.48,0,0,1,17-4.94,25.3,25.3,0,0,1,21,10.47V198.1H682.8V303.22Zm-40.74-38q0,14.63,6.15,21.87t14.54,7.24q8.44,0,14.36-6.92t5.91-21.12q0-15.63-6-23T650.22,236a17.84,17.84,0,0,0-14.36,7Q630.1,250.08,630.1,265.22Z" fill="#ffffff"/><path class="cls-3" d="M755.12,278.7l13.32,1.65q-3.15,11.68-11.67,18.14T735,304.94q-16.68,0-26.46-10.29t-9.77-28.86q0-19.22,9.88-29.83t25.64-10.61q15.24,0,24.92,10.39T768.87,265c0,.77,0,1.91-.07,3.44H712.09q.7,12.56,7.09,19.22a21,21,0,0,0,15.89,6.67,19.71,19.71,0,0,0,12.11-3.73Q752.19,286.87,755.12,278.7ZM712.8,257.83h42.47q-.87-9.62-4.87-14.41a19.76,19.76,0,0,0-16-7.46,20.44,20.44,0,0,0-14.93,5.95Q713.44,247.87,712.8,257.83Z" fill="#ffffff"/><path class="cls-3" d="M784.63,303.22V227.07h11.53v10.68a27.05,27.05,0,0,1,9.52-9,26.71,26.71,0,0,1,13.53-3.4c5.64,0,10.25,1.17,13.86,3.51a18.84,18.84,0,0,1,7.63,9.82q9-13.34,23.48-13.33,11.33,0,17.4,6.27T887.67,251v52.27H874.85v-48q0-7.74-1.25-11.15a10.83,10.83,0,0,0-4.55-5.49,14.21,14.21,0,0,0-7.73-2.08A18,18,0,0,0,848,241.87q-5.29,5.35-5.3,17.11v44.24H829.81V253.74q0-8.6-3.15-12.91t-10.31-4.3a18.73,18.73,0,0,0-10.06,2.87,16.29,16.29,0,0,0-6.7,8.39q-2.07,5.52-2.07,15.92v39.51Z" fill="#ffffff"/><path class="cls-3" d="M906.22,332.55l-1.43-12.12a28.84,28.84,0,0,0,7.37,1.15,14.1,14.1,0,0,0,6.88-1.44,11.73,11.73,0,0,0,4.22-4q1.22-1.94,3.94-9.61c.24-.72.62-1.77,1.15-3.16l-28.86-76.29h13.89l15.83,44.1q3.07,8.38,5.51,17.64a171.87,171.87,0,0,1,5.3-17.36l16.25-44.38h12.89l-28.93,77.44q-4.65,12.54-7.23,17.28a25.49,25.49,0,0,1-7.88,9.36,18.6,18.6,0,0,1-10.59,3A25.76,25.76,0,0,1,906.22,332.55Z" fill="#ffffff"/></g></g></svg>